<svg width="237" height="48" viewBox="0 0 237 48" fill="none" xmlns="http://www.w3.org/2000/svg">
<g clip-path="url(#clip0_35_6)">
<path d="M13.5 32.5H22.5V34.75H13.5C7.28663 34.75 2.25 29.7134 2.25 23.5C2.25 17.2866 7.28663 12.25 13.5 12.25C19.7134 12.25 24.75 17.2866 24.75 23.5C24.7536 25.9347 23.9637 28.3044 22.5 30.25H19.4535C21.0333 28.8568 22.0744 26.9535 22.3954 24.8718C22.7165 22.79 22.2972 20.6615 21.2105 18.8571C20.1239 17.0526 18.4387 15.6865 16.4485 14.9965C14.4584 14.3066 12.2892 14.3365 10.3188 15.0812C8.34847 15.8258 6.70171 17.238 5.66532 19.0718C4.62893 20.9056 4.26857 23.0448 4.64699 25.1169C5.02542 27.189 6.11866 29.0628 7.73632 30.4118C9.35399 31.7609 11.3936 32.4999 13.5 32.5V32.5ZM13.5 21.25C12.9033 21.25 12.331 21.0129 11.909 20.591C11.4871 20.169 11.25 19.5967 11.25 19C11.25 18.4033 11.4871 17.831 11.909 17.409C12.331 16.9871 12.9033 16.75 13.5 16.75C14.0967 16.75 14.669 16.9871 15.091 17.409C15.5129 17.831 15.75 18.4033 15.75 19C15.75 19.5967 15.5129 20.169 15.091 20.591C14.669 21.0129 14.0967 21.25 13.5 21.25ZM9 25.75C8.40326 25.75 7.83097 25.5129 7.40901 25.091C6.98705 24.669 6.75 24.0967 6.75 23.5C6.75 22.9033 6.98705 22.331 7.40901 21.909C7.83097 21.4871 8.40326 21.25 9 21.25C9.59674 21.25 10.169 21.4871 10.591 21.909C11.0129 22.331 11.25 22.9033 11.25 23.5C11.25 24.0967 11.0129 24.669 10.591 25.091C10.169 25.5129 9.59674 25.75 9 25.75ZM18 25.75C17.4033 25.75 16.831 25.5129 16.409 25.091C15.9871 24.669 15.75 24.0967 15.75 23.5C15.75 22.9033 15.9871 22.331 16.409 21.909C16.831 21.4871 17.4033 21.25 18 21.25C18.5967 21.25 19.169 21.4871 19.591 21.909C20.0129 22.331 20.25 22.9033 20.25 23.5C20.25 24.0967 20.0129 24.669 19.591 25.091C19.169 25.5129 18.5967 25.75 18 25.75V25.75ZM13.5 30.25C12.9033 30.25 12.331 30.0129 11.909 29.591C11.4871 29.169 11.25 28.5967 11.25 28C11.25 27.4033 11.4871 26.831 11.909 26.409C12.331 25.9871 12.9033 25.75 13.5 25.75C14.0967 25.75 14.669 25.9871 15.091 26.409C15.5129 26.831 15.75 27.4033 15.75 28C15.75 28.5967 15.5129 29.169 15.091 29.591C14.669 30.0129 14.0967 30.25 13.5 30.25Z" fill="#2B55FD"/>
</g>
<path d="M52.824 12.76V35H49.176V19.768L42.392 35H39.864L33.048 19.768V35H29.4V12.76H33.336L41.144 30.2L48.92 12.76H52.824ZM65.2668 35.288C63.6028 35.288 62.0988 34.9147 60.7548 34.168C59.4108 33.4 58.3548 32.3333 57.5868 30.968C56.8188 29.5813 56.4348 27.9813 56.4348 26.168C56.4348 24.376 56.8294 22.7867 57.6188 21.4C58.4081 20.0133 59.4854 18.9467 60.8508 18.2C62.2161 17.4533 63.7414 17.08 65.4268 17.08C67.1121 17.08 68.6374 17.4533 70.0028 18.2C71.3681 18.9467 72.4454 20.0133 73.2348 21.4C74.0241 22.7867 74.4188 24.376 74.4188 26.168C74.4188 27.96 74.0134 29.5493 73.2028 30.936C72.3921 32.3227 71.2828 33.4 69.8748 34.168C68.4881 34.9147 66.9521 35.288 65.2668 35.288ZM65.2668 32.12C66.2054 32.12 67.0801 31.896 67.8908 31.448C68.7228 31 69.3948 30.328 69.9068 29.432C70.4188 28.536 70.6748 27.448 70.6748 26.168C70.6748 24.888 70.4294 23.8107 69.9388 22.936C69.4481 22.04 68.7974 21.368 67.9868 20.92C67.1761 20.472 66.3014 20.248 65.3628 20.248C64.4241 20.248 63.5494 20.472 62.7388 20.92C61.9494 21.368 61.3201 22.04 60.8508 22.936C60.3814 23.8107 60.1468 24.888 60.1468 26.168C60.1468 28.0667 60.6268 29.5387 61.5868 30.584C62.5681 31.608 63.7948 32.12 65.2668 32.12ZM84.841 31.736L89.833 17.368H93.705L86.985 35H82.633L75.945 17.368H79.849L84.841 31.736ZM98.3185 15.032C97.6572 15.032 97.1025 14.808 96.6545 14.36C96.2065 13.912 95.9825 13.3573 95.9825 12.696C95.9825 12.0347 96.2065 11.48 96.6545 11.032C97.1025 10.584 97.6572 10.36 98.3185 10.36C98.9585 10.36 99.5025 10.584 99.9505 11.032C100.399 11.48 100.623 12.0347 100.623 12.696C100.623 13.3573 100.399 13.912 99.9505 14.36C99.5025 14.808 98.9585 15.032 98.3185 15.032ZM100.111 17.368V35H96.4625V17.368H100.111ZM121.06 25.752C121.06 26.4133 121.017 27.0107 120.932 27.544H107.46C107.567 28.952 108.089 30.0827 109.028 30.936C109.967 31.7893 111.119 32.216 112.484 32.216C114.447 32.216 115.833 31.3947 116.644 29.752H120.58C120.047 31.3733 119.076 32.7067 117.668 33.752C116.281 34.776 114.553 35.288 112.484 35.288C110.799 35.288 109.284 34.9147 107.94 34.168C106.617 33.4 105.572 32.3333 104.804 30.968C104.057 29.5813 103.684 27.9813 103.684 26.168C103.684 24.3547 104.047 22.7653 104.772 21.4C105.519 20.0133 106.553 18.9467 107.876 18.2C109.22 17.4533 110.756 17.08 112.484 17.08C114.148 17.08 115.631 17.4427 116.932 18.168C118.233 18.8933 119.247 19.9173 119.972 21.24C120.697 22.5413 121.06 24.0453 121.06 25.752ZM117.252 24.6C117.231 23.256 116.751 22.1787 115.812 21.368C114.873 20.5573 113.711 20.152 112.324 20.152C111.065 20.152 109.988 20.5573 109.092 21.368C108.196 22.1573 107.663 23.2347 107.492 24.6H117.252ZM131.978 35.224C130.485 35.224 129.141 34.968 127.946 34.456C126.751 33.9227 125.813 33.176 125.13 32.216C124.447 31.256 124.106 30.136 124.106 28.856H128.01C128.095 29.816 128.469 30.6053 129.13 31.224C129.813 31.8427 130.762 32.152 131.978 32.152C133.237 32.152 134.218 31.8533 134.922 31.256C135.626 30.6373 135.978 29.848 135.978 28.888C135.978 28.1413 135.754 27.5333 135.306 27.064C134.879 26.5947 134.335 26.232 133.674 25.976C133.034 25.72 132.138 25.4427 130.986 25.144C129.535 24.76 128.351 24.376 127.434 23.992C126.538 23.5867 125.77 22.968 125.13 22.136C124.49 21.304 124.17 20.1947 124.17 18.808C124.17 17.528 124.49 16.408 125.13 15.448C125.77 14.488 126.666 13.752 127.818 13.24C128.97 12.728 130.303 12.472 131.818 12.472C133.973 12.472 135.733 13.016 137.098 14.104C138.485 15.1707 139.253 16.6427 139.402 18.52H135.37C135.306 17.7093 134.922 17.016 134.218 16.44C133.514 15.864 132.586 15.576 131.434 15.576C130.389 15.576 129.535 15.8427 128.874 16.376C128.213 16.9093 127.882 17.6773 127.882 18.68C127.882 19.3627 128.085 19.928 128.49 20.376C128.917 20.8027 129.45 21.144 130.09 21.4C130.73 21.656 131.605 21.9333 132.714 22.232C134.186 22.6373 135.381 23.0427 136.298 23.448C137.237 23.8533 138.026 24.4827 138.666 25.336C139.327 26.168 139.658 27.288 139.658 28.696C139.658 29.8267 139.349 30.8933 138.73 31.896C138.133 32.8987 137.247 33.7093 136.074 34.328C134.922 34.9253 133.557 35.224 131.978 35.224ZM148.219 20.344V30.104C148.219 30.7653 148.368 31.2453 148.667 31.544C148.987 31.8213 149.52 31.96 150.267 31.96H152.507V35H149.627C147.984 35 146.725 34.616 145.851 33.848C144.976 33.08 144.539 31.832 144.539 30.104V20.344H142.459V17.368H144.539V12.984H148.219V17.368H152.507V20.344H148.219ZM154.653 26.104C154.653 24.3333 155.015 22.7653 155.741 21.4C156.487 20.0347 157.49 18.9787 158.749 18.232C160.029 17.464 161.437 17.08 162.973 17.08C164.359 17.08 165.565 17.3573 166.589 17.912C167.634 18.4453 168.466 19.1173 169.085 19.928V17.368H172.765V35H169.085V32.376C168.466 33.208 167.623 33.9013 166.557 34.456C165.49 35.0107 164.274 35.288 162.909 35.288C161.394 35.288 160.007 34.904 158.749 34.136C157.49 33.3467 156.487 32.2587 155.741 30.872C155.015 29.464 154.653 27.8747 154.653 26.104ZM169.085 26.168C169.085 24.952 168.829 23.896 168.317 23C167.826 22.104 167.175 21.4213 166.365 20.952C165.554 20.4827 164.679 20.248 163.741 20.248C162.802 20.248 161.927 20.4827 161.117 20.952C160.306 21.4 159.645 22.072 159.133 22.968C158.642 23.8427 158.397 24.888 158.397 26.104C158.397 27.32 158.642 28.3867 159.133 29.304C159.645 30.2213 160.306 30.9253 161.117 31.416C161.949 31.8853 162.823 32.12 163.741 32.12C164.679 32.12 165.554 31.8853 166.365 31.416C167.175 30.9467 167.826 30.264 168.317 29.368C168.829 28.4507 169.085 27.384 169.085 26.168ZM181.812 20.344V30.104C181.812 30.7653 181.962 31.2453 182.26 31.544C182.58 31.8213 183.114 31.96 183.86 31.96H186.1V35H183.22C181.578 35 180.319 34.616 179.444 33.848C178.57 33.08 178.132 31.832 178.132 30.104V20.344H176.052V17.368H178.132V12.984H181.812V17.368H186.1V20.344H181.812ZM191.319 15.032C190.657 15.032 190.103 14.808 189.655 14.36C189.207 13.912 188.983 13.3573 188.983 12.696C188.983 12.0347 189.207 11.48 189.655 11.032C190.103 10.584 190.657 10.36 191.319 10.36C191.959 10.36 192.503 10.584 192.951 11.032C193.399 11.48 193.623 12.0347 193.623 12.696C193.623 13.3573 193.399 13.912 192.951 14.36C192.503 14.808 191.959 15.032 191.319 15.032ZM193.111 17.368V35H189.463V17.368H193.111ZM205.548 35.288C203.884 35.288 202.38 34.9147 201.036 34.168C199.692 33.4 198.636 32.3333 197.868 30.968C197.1 29.5813 196.716 27.9813 196.716 26.168C196.716 24.376 197.111 22.7867 197.9 21.4C198.689 20.0133 199.767 18.9467 201.132 18.2C202.497 17.4533 204.023 17.08 205.708 17.08C207.393 17.08 208.919 17.4533 210.284 18.2C211.649 18.9467 212.727 20.0133 213.516 21.4C214.305 22.7867 214.7 24.376 214.7 26.168C214.7 27.96 214.295 29.5493 213.484 30.936C212.673 32.3227 211.564 33.4 210.156 34.168C208.769 34.9147 207.233 35.288 205.548 35.288ZM205.548 32.12C206.487 32.12 207.361 31.896 208.172 31.448C209.004 31 209.676 30.328 210.188 29.432C210.7 28.536 210.956 27.448 210.956 26.168C210.956 24.888 210.711 23.8107 210.22 22.936C209.729 22.04 209.079 21.368 208.268 20.92C207.457 20.472 206.583 20.248 205.644 20.248C204.705 20.248 203.831 20.472 203.02 20.92C202.231 21.368 201.601 22.04 201.132 22.936C200.663 23.8107 200.428 24.888 200.428 26.168C200.428 28.0667 200.908 29.5387 201.868 30.584C202.849 31.608 204.076 32.12 205.548 32.12ZM227.202 17.08C228.589 17.08 229.826 17.368 230.914 17.944C232.024 18.52 232.888 19.3733 233.506 20.504C234.125 21.6347 234.434 23 234.434 24.6V35H230.818V25.144C230.818 23.5653 230.424 22.36 229.634 21.528C228.845 20.6747 227.768 20.248 226.402 20.248C225.037 20.248 223.949 20.6747 223.138 21.528C222.349 22.36 221.954 23.5653 221.954 25.144V35H218.306V17.368H221.954V19.384C222.552 18.6587 223.309 18.0933 224.226 17.688C225.165 17.2827 226.157 17.08 227.202 17.08Z" fill="white"/>
<defs>
<clipPath id="clip0_35_6">
<rect width="27" height="27" fill="white" transform="translate(0 10)"/>
</clipPath>
</defs>
</svg>
